<svg xmlns="http://www.w3.org/2000/svg" xmlns:xlink="http://www.w3.org/1999/xlink" version="1.1" x="0px" y="0px" viewBox="0 0 337.6 145" enable-background="new 0 0 337.6 145" xml:space="preserve"><g id="Layer_1"><g><path d="M142.4 47.4c5.9 5.8 9.8 14 9.8 23.8c0 8.4-3 17-9.8 23.6c-5.8 5.7-13.8 9.2-24.3 9.2c-11.8 0-19.8-4.7-24.5-9.2 c-6-5.7-9.8-14.1-9.8-23.4c0-9.1 4.1-18.2 9.7-23.8c4.2-4.2 12.1-9.2 24.6-9.2C127.9 38.3 136.1 41.3 142.4 47.4z M104.2 57 c-2.7 2.6-5.6 7.3-5.6 14.2c0 5.8 1.9 10.4 5.8 14.1c4.1 3.9 8.6 5.2 13.5 5.2c6.4 0 10.9-2.4 14-5.4c2.5-2.4 5.5-6.8 5.5-14 c0-6.5-2.6-11.3-5.5-14.1c-3.1-3-8.1-5.4-13.9-5.4C112.5 51.7 107.6 53.7 104.2 57z"/><path d="M231.6 90.7h-23.8l-4.8 11.9H188l25.4-62.9h13.3l24.8 62.9h-15.1L231.6 90.7z M227.7 79.6l-7.7-21.1l-7.8 21.1H227.7z"/><path d="M314.9 39.7c5.5 0 11.5 0.8 16.5 5.2c5.4 4.7 6.1 10.9 6.1 15.3c0 7.9-3 12.3-5.4 14.8c-5 5.1-11.6 5.6-16 5.6h-8.9v22.1 h-14.5V39.7H314.9z M307.3 68.6h5.2c2 0 5.5-0.1 7.8-2.4c1.3-1.3 2.4-3.5 2.4-6.2c0-2.6-0.9-4.8-2.4-6.1c-2.2-2.1-5.3-2.4-8.1-2.4 h-4.9V68.6z"/><g><path d="M34.8 54.1c-1.5-1.3-3-2-4.4-2.5C28.5 50.9 27 51 25.7 51c-1 0-2 0.1-3.1 0.4c-1.1 0.2-2.1 0.6-3 1.1 c-0.9 0.5-1.7 1.2-2.3 2c-0.6 0.8-0.9 1.8-0.9 3c0 1.9 0.7 3.3 2.1 4.3c1.4 1 3.2 1.9 5.4 2.6c2.2 0.7 4.5 1.4 6.9 2.1 c2.5 0.7 4.8 1.7 6.9 3c2.2 1.3 3.9 3 5.4 5.2c1.4 2.2 2.1 5.1 2.1 8.8c0 3.5-0.6 6.5-1.9 9.1C42 95.1 40.2 97.3 38 99 c-2.2 1.7-4.8 3-7.7 3.8c-2.9 0.8-6 1.2-9.2 1.2c-4.1 0-7.8-0.6-11.3-1.9c-3.5-1.2-6.7-3.2-9.7-6l8.5-10.8c2.5 2 4.5 3.3 6.6 4.3 c2.2 1 4.4 1.5 6.7 1.5c1.1 0 2.3-0.1 3.4-0.4c1.1-0.3 2.2-0.7 3.1-1.2c0.9-0.5 1.7-1.2 2.2-2c0.6-0.8 0.8-1.8 0.8-2.9 c0-1.9-0.7-3.4-2.2-4.5c-1.4-1.1-3.3-2-5.4-2.8c-2.2-0.8-4.5-1.5-7.1-2.3c-2.5-0.8-4.9-1.8-7.1-3.1c-2.2-1.3-4-3-5.4-5.1 C2.8 64.9 2 62.1 2 58.6c0-3.4 0.7-6.3 2-8.8c1.3-2.5 3.1-4.7 5.3-6.4c2.2-1.7 4.8-3 7.7-3.8c2.9-0.9 5.9-1.3 8.9-1.3 c3.6 0 6.8 0.8 9.8 1.8c2.9 1 4.4 2.1 7 4.1L34.8 54.1z"/></g></g></g><g id="Layer_4_copy"><text transform="matrix(1 0 0 1 135.9989 17.5034)" font-family="'FuturaPT-Heavy', Helvetica" font-size="21" letter-spacing="15">THE</text><text transform="matrix(1 0 0 1 44.418 139.5454)" font-family="'FuturaPT-Heavy', Helvetica" font-size="21" letter-spacing="15">COLLECTIVE</text></g></svg>
