<?xml version="1.0" encoding="utf-8"?>
<!-- Generator: Adobe Illustrator 18.1.1, SVG Export Plug-In . SVG Version: 6.00 Build 0)  -->
<svg version="1.1" id="Layer_1" xmlns="http://www.w3.org/2000/svg" xmlns:xlink="http://www.w3.org/1999/xlink" x="0px" y="0px"
	 viewBox="0.3 562.3 611.9 247.4" enable-background="new 0.3 562.3 611.9 247.4" xml:space="preserve">
<g id="Layer_1_1_">
	<g>
		<path fill="#FFFFFF" d="M258.4,642c10.7,10.5,17.8,25.3,17.8,43.1c0,15.2-5.4,30.8-17.8,42.8c-10.5,10.4-25,16.7-44,16.7
			c-21.4,0-35.9-8.5-44.4-16.7c-10.9-10.4-17.8-25.6-17.8-42.4c0-16.5,7.4-33,17.6-43.1c7.6-7.6,21.9-16.7,44.6-16.7
			C232,625.5,246.9,630.9,258.4,642z M189.1,659.3c-4.9,4.7-10.1,13.2-10.1,25.7c0,10.5,3.5,18.9,10.5,25.6c7.4,7,15.6,9.4,24.5,9.4
			c11.6,0,19.8-4.3,25.3-9.8c4.6-4.3,10-12.4,10-25.3c0-11.7-4.7-20.5-10-25.6c-5.6-5.4-14.7-9.8-25.2-9.8
			C204.1,649.8,195.2,653.4,189.1,659.3z"/>
		<path fill="#FFFFFF" d="M420.1,720.5H377l-8.7,21.6H341L387.1,628h24.1l45,114.1h-27.3L420.1,720.5z M413.1,700.4l-14-38.2
			l-14.1,38.2H413.1z"/>
		<path fill="#FFFFFF" d="M571.2,628c10,0,20.9,1.5,29.9,9.4c9.8,8.5,11,19.8,11,27.7c0,14.3-5.4,22.3-9.8,26.8
			c-9,9.3-21,10.1-29,10.1h-16.2v40H531V628H571.2z M557.5,680.4h9.4c3.6,0,10-0.2,14.1-4.3c2.3-2.3,4.3-6.3,4.3-11.2
			c0-4.7-1.6-8.7-4.3-11c-4-3.8-9.6-4.3-14.7-4.3h-8.9V680.4z"/>
		<g>
			<path fill="#FFFFFF" d="M63.2,654.1c-2.7-2.3-5.4-3.6-8-4.6c-3.5-1.2-6.2-1.1-8.5-1.1c-1.8,0-3.6,0.2-5.6,0.7
				c-2,0.4-3.8,1.1-5.4,2c-1.6,0.9-3.1,2.2-4.2,3.6c-1.1,1.5-1.6,3.2-1.6,5.4c0,3.5,1.2,6,3.8,7.8c2.5,1.9,5.8,3.5,9.8,4.7
				c4,1.2,8.2,2.5,12.5,3.8c4.6,1.2,8.7,3.1,12.5,5.4c4,2.3,7,5.4,9.8,9.4c2.6,4,3.8,9.3,3.8,15.9c0,6.3-1.1,11.7-3.5,16.5
				c-2.3,4.6-5.6,8.5-9.6,11.6c-4,3.1-8.7,5.4-14,6.9s-10.9,2.2-16.7,2.2c-7.4,0-14.1-1.1-20.5-3.5c-6.3-2.2-12.1-5.8-17.6-10.9
				l15.5-19.3c4.6,3.6,8.2,6,12,7.8c4,1.8,8,2.7,12.1,2.7c2,0,4.2-0.2,6.2-0.7c2-0.5,4-1.2,5.6-2.2c1.6-0.9,3.1-2.2,4-3.6
				c1.1-1.5,1.5-3.2,1.5-5.3c0-3.5-1.2-6.2-4-8.2c-2.5-2-6-3.6-9.8-5.1c-4-1.5-8.2-2.7-12.9-4.2c-4.6-1.5-8.9-3.2-12.9-5.6
				c-4-2.3-7.3-5.4-9.8-9.3c-2.6-3.5-4-8.5-4-14.8c0-6.2,1.2-11.4,3.6-15.9s5.6-8.5,9.6-11.6c4-3.1,8.7-5.4,14-6.9
				c5.3-1.6,10.7-2.3,16.1-2.3c6.5,0,12.4,1.5,17.8,3.2c5.3,1.8,8,3.8,12.7,7.4L63.2,654.1z"/>
		</g>
	</g>
</g>
<g id="Layer_4_copy">
	<g enable-background="new    ">
		<path fill="#FFFFFF" d="M258.4,567.2v20.5h-5.9v-20.5h-5.5v-4.9H264v4.9H258.4z"/>
		<path fill="#FFFFFF" d="M300.1,571.9h10.1v-9.7h5.9v25.4h-5.9v-10.8h-10.1v10.8h-5.9v-25.4h5.9V571.9z"/>
		<path fill="#FFFFFF" d="M363.2,567.2h-8.5v4.9h8v4.9h-8v5.6h8.5v4.9h-14.4v-25.4h14.4V567.2z"/>
	</g>
	<g enable-background="new    ">
		<path fill="#FFFFFF" d="M101.7,808.3c-2.2,1.2-4.1,1.4-5.6,1.4c-4.7,0-7.8-1.6-10-3.7c-2.3-2.2-3.9-5.6-3.9-9.7
			c0-4,1.7-7.3,3.9-9.6c2.2-2.2,5.5-3.6,9.5-3.6c1.7,0,3.6,0.3,6.1,1.4v6.8c-1.3-1.4-3.2-2.7-5.9-2.7c-2.2,0-3.9,0.7-5.2,2
			c-1.4,1.4-2.4,3.4-2.4,5.9c0,2.6,1.1,4.5,2.2,5.6c0.5,0.5,2.4,2.2,5.5,2.2c1.5,0,3.6-0.4,5.8-2.6L101.7,808.3L101.7,808.3
			L101.7,808.3z"/>
		<path fill="#FFFFFF" d="M156.1,786.8c2.4,2.3,3.9,5.6,3.9,9.6c0,3.4-1.2,6.9-3.9,9.5c-2.4,2.3-5.6,3.7-9.8,3.7
			c-4.8,0-8-1.9-9.9-3.7c-2.5-2.3-3.9-5.7-3.9-9.4c0-3.6,1.6-7.3,3.9-9.7c1.7-1.7,4.9-3.7,10-3.7
			C150.3,783.1,153.6,784.4,156.1,786.8z M140.7,790.7c-1.1,1.1-2.2,2.9-2.2,5.7c0,2.3,0.8,4.2,2.3,5.7c1.6,1.5,3.5,2.1,5.4,2.1
			c2.6,0,4.4-0.9,5.6-2.2c1-0.9,2.2-2.7,2.2-5.6c0-2.6-1.1-4.6-2.2-5.7c-1.2-1.2-3.2-2.2-5.6-2.2
			C144.1,788.5,142.1,789.3,140.7,790.7z"/>
		<path fill="#FFFFFF" d="M197.6,783.7v20.5h7.9v4.9h-13.8v-25.4H197.6z"/>
		<path fill="#FFFFFF" d="M241.8,783.7v20.5h7.9v4.9H236v-25.4H241.8z"/>
		<path fill="#FFFFFF" d="M294.5,788.6H286v4.9h8v4.9h-8v5.6h8.5v4.9h-14.4v-25.4h14.4V788.6z"/>
		<path fill="#FFFFFF" d="M344.9,808.3c-2.2,1.2-4.1,1.4-5.6,1.4c-4.7,0-7.8-1.6-10-3.7c-2.3-2.2-3.9-5.6-3.9-9.7
			c0-4,1.7-7.3,3.9-9.6c2.2-2.2,5.5-3.6,9.5-3.6c1.7,0,3.6,0.3,6.1,1.4v6.8c-1.3-1.4-3.2-2.7-6-2.7c-2.2,0-3.9,0.7-5.2,2
			c-1.4,1.4-2.4,3.4-2.4,5.9c0,2.6,1.1,4.5,2.2,5.6c0.5,0.5,2.4,2.2,5.5,2.2c1.5,0,3.6-0.4,5.8-2.6L344.9,808.3L344.9,808.3z"/>
		<path fill="#FFFFFF" d="M385.7,788.6v20.5h-5.9v-20.5h-5.6v-4.9h16.9v4.9H385.7z"/>
		<path fill="#FFFFFF" d="M427.4,783.7v25.4h-5.9v-25.4H427.4z"/>
		<path fill="#FFFFFF" d="M464.1,783.7l6.4,16.2l6.4-16.2h6.3l-10.7,25.4h-3.9l-10.7-25.4H464.1z"/>
		<path fill="#FFFFFF" d="M527.7,788.6h-8.5v4.9h8v4.9h-8v5.6h8.5v4.9h-14.4v-25.4h14.4V788.6z"/>
	</g>
</g>
</svg>
