<?xml version="1.0" encoding="utf-8"?>
<!-- Generator: Adobe Illustrator 18.0.0, SVG Export Plug-In . SVG Version: 6.00 Build 0)  -->
<!DOCTYPE svg PUBLIC "-//W3C//DTD SVG 1.1//EN" "http://www.w3.org/Graphics/SVG/1.1/DTD/svg11.dtd">
<svg version="1.1" id="Layer_1" xmlns="http://www.w3.org/2000/svg" xmlns:xlink="http://www.w3.org/1999/xlink" x="0px" y="0px"
	 viewBox="0 0 792 612" enable-background="new 0 0 792 612" xml:space="preserve">
<g id="Layer_1_1_">
	<g>
		<path d="M334.1,247.1c13.8,13.6,23,32.8,23,55.8c0,19.7-7,39.9-23,55.4c-13.6,13.4-32.4,21.6-57,21.6c-27.7,0-46.5-11-57.5-21.6
			c-14.1-13.4-23-33.1-23-54.9c0-21.3,9.6-42.7,22.8-55.8c9.9-9.9,28.4-21.6,57.7-21.6C300,225.8,319.3,232.8,334.1,247.1z
			 M244.5,269.6c-6.3,6.1-13.1,17.1-13.1,33.3c0,13.6,4.5,24.4,13.6,33.1c9.6,9.1,20.2,12.2,31.7,12.2c15,0,25.6-5.6,32.8-12.7
			c5.9-5.6,12.9-16,12.9-32.8c0-15.2-6.1-26.5-12.9-33.1c-7.3-7-19-12.7-32.6-12.7C263.9,257.2,252.4,261.9,244.5,269.6z"/>
		<path d="M543.3,348.7h-55.8l-11.3,27.9H441l59.6-147.6h31.2L590,376.6h-35.4L543.3,348.7z M534.2,322.7l-18.1-49.5l-18.3,49.5
			H534.2z"/>
		<path d="M738.7,229.1c12.9,0,27,1.9,38.7,12.2c12.7,11,14.3,25.6,14.3,35.9c0,18.5-7,28.9-12.7,34.7c-11.7,12-27.2,13.1-37.5,13.1
			h-20.9v51.8h-34V229.1H738.7z M720.9,296.9h12.2c4.7,0,12.9-0.2,18.3-5.6c3-3,5.6-8.2,5.6-14.5c0-6.1-2.1-11.3-5.6-14.3
			c-5.2-4.9-12.4-5.6-19-5.6h-11.5V296.9z"/>
		<g>
			<path d="M81.6,262.8c-3.5-3-7-4.7-10.3-5.9c-4.5-1.6-8-1.4-11-1.4c-2.3,0-4.7,0.2-7.3,0.9c-2.6,0.5-4.9,1.4-7,2.6
				c-2.1,1.2-4,2.8-5.4,4.7c-1.4,1.9-2.1,4.2-2.1,7c0,4.5,1.6,7.7,4.9,10.1s7.5,4.5,12.7,6.1s10.6,3.3,16.2,4.9
				c5.9,1.6,11.3,4,16.2,7c5.2,3,9.1,7,12.7,12.2c3.3,5.2,4.9,12,4.9,20.6c0,8.2-1.4,15.2-4.5,21.3c-3,5.9-7.3,11-12.4,15
				c-5.2,4-11.3,7-18.1,8.9c-6.8,1.9-14.1,2.8-21.6,2.8c-9.6,0-18.3-1.4-26.5-4.5c-8.2-2.8-15.7-7.5-22.8-14.1L20.2,336
				c5.9,4.7,10.6,7.7,15.5,10.1c5.2,2.3,10.3,3.5,15.7,3.5c2.6,0,5.4-0.2,8-0.9c2.6-0.7,5.2-1.6,7.3-2.8c2.1-1.2,4-2.8,5.2-4.7
				c1.4-1.9,1.9-4.2,1.9-6.8c0-4.5-1.6-8-5.2-10.6c-3.3-2.6-7.7-4.7-12.7-6.6c-5.2-1.9-10.6-3.5-16.7-5.4
				c-5.9-1.9-11.5-4.2-16.7-7.3c-5.2-3-9.4-7-12.7-12c-3.3-4.5-5.2-11-5.2-19.2c0-8,1.6-14.8,4.7-20.6s7.3-11,12.4-15
				c5.2-4,11.3-7,18.1-8.9c6.8-2.1,13.8-3,20.9-3c8.4,0,16,1.9,23,4.2c6.8,2.3,10.3,4.9,16.4,9.6L81.6,262.8z"/>
		</g>
	</g>
</g>
<g id="Layer_4_copy">
	<g enable-background="new    ">
		<path d="M334.2,150.5V177h-7.6v-26.5h-7.1v-6.4h21.9v6.4H334.2z"/>
		<path d="M388.1,156.6h13.1v-12.5h7.6V177h-7.6V163h-13.1V177h-7.6v-32.9h7.6V156.6z"/>
		<path d="M469.7,150.5h-11v6.4h10.4v6.4h-10.4v7.3h11v6.4h-18.6v-32.9h18.6V150.5z"/>
	</g>
	<g enable-background="new    ">
		<path d="M131.5,462.3c-2.9,1.5-5.3,1.8-7.2,1.8c-6.1,0-10.1-2.1-12.9-4.8c-3-2.9-5.1-7.2-5.1-12.5c0-5.2,2.2-9.5,5.1-12.4
			c2.9-2.8,7.1-4.7,12.3-4.7c2.2,0,4.7,0.4,7.9,1.8v8.8c-1.7-1.8-4.2-3.5-7.7-3.5c-2.8,0-5,0.9-6.7,2.6c-1.8,1.8-3.1,4.4-3.1,7.6
			c0,3.4,1.4,5.8,2.9,7.2c0.7,0.7,3.1,2.8,7.1,2.8c2,0,4.6-0.5,7.5-3.4V462.3z"/>
		<path d="M201.9,434.5c3.1,3,5.1,7.3,5.1,12.4c0,4.4-1.6,8.9-5.1,12.3c-3.1,3-7.2,4.8-12.7,4.8c-6.2,0-10.3-2.5-12.8-4.8
			c-3.2-3-5.1-7.4-5.1-12.2c0-4.7,2.1-9.5,5.1-12.5c2.2-2.2,6.3-4.8,12.9-4.8C194.3,429.7,198.6,431.3,201.9,434.5z M181.9,439.5
			c-1.4,1.4-2.9,3.8-2.9,7.4c0,3,1,5.4,3,7.4c2.1,2,4.5,2.7,7,2.7c3.4,0,5.7-1.2,7.3-2.8c1.3-1.2,2.9-3.5,2.9-7.3
			c0-3.4-1.4-5.9-2.9-7.4c-1.6-1.6-4.2-2.8-7.2-2.8C186.3,436.7,183.7,437.7,181.9,439.5z"/>
		<path d="M255.4,430.4v26.5h10.2v6.4h-17.8v-32.9H255.4z"/>
		<path d="M312.7,430.4v26.5h10.2v6.4h-17.8v-32.9H312.7z"/>
		<path d="M380.9,436.8h-11v6.4h10.4v6.4h-10.4v7.3h11v6.4h-18.6v-32.9h18.6V436.8z"/>
		<path d="M446,462.3c-2.9,1.5-5.3,1.8-7.2,1.8c-6.1,0-10.1-2.1-12.9-4.8c-3-2.9-5.1-7.2-5.1-12.5c0-5.2,2.2-9.5,5.1-12.4
			c2.9-2.8,7.1-4.7,12.3-4.7c2.2,0,4.7,0.4,7.9,1.8v8.8c-1.7-1.8-4.2-3.5-7.7-3.5c-2.8,0-5,0.9-6.7,2.6c-1.8,1.8-3.1,4.4-3.1,7.6
			c0,3.4,1.4,5.8,2.9,7.2c0.7,0.7,3.1,2.8,7.1,2.8c2,0,4.6-0.5,7.5-3.4V462.3z"/>
		<path d="M498.8,436.8v26.5h-7.6v-26.5H484v-6.4h21.9v6.4H498.8z"/>
		<path d="M552.8,430.4v32.9h-7.6v-32.9H552.8z"/>
		<path d="M600.1,430.4l8.3,21l8.3-21h8.2L611,463.3h-5.1l-13.9-32.9H600.1z"/>
		<path d="M682.5,436.8h-11v6.4h10.4v6.4h-10.4v7.3h11v6.4h-18.6v-32.9h18.6V436.8z"/>
	</g>
</g>
</svg>
